<?xml version="1.0" standalone="no"?>
<!DOCTYPE svg PUBLIC "-//W3C//DTD SVG 20010904//EN"
 "http://www.w3.org/TR/2001/REC-SVG-20010904/DTD/svg10.dtd">
<svg version="1.0" xmlns="http://www.w3.org/2000/svg"
 width="1000.000000pt" height="1000.000000pt" viewBox="0 0 1000.000000 1000.000000"
 preserveAspectRatio="xMidYMid meet">
<metadata>
Created by potrace 1.16, written by Peter Selinger 2001-2019
</metadata>
<g transform="translate(0.000000,1000.000000) scale(0.100000,-0.100000)"
fill="#000000" stroke="none">
<path d="M0 5000 l0 -5000 5000 0 5000 0 0 5000 0 5000 -5000 0 -5000 0 0
-5000z m3544 582 c187 -108 339 -201 339 -207 0 -10 -670 -403 -689 -404 -10
-1 -681 382 -696 397 -7 7 678 410 697 411 6 0 163 -89 349 -197z m1171 -82
c347 -27 508 -173 509 -465 1 -204 -65 -335 -206 -406 -112 -57 -151 -61 -535
-66 l-353 -5 0 469 c0 259 3 473 7 476 10 10 440 8 578 -3z m975 -314 c0 -178
3 -331 6 -340 5 -14 37 -16 250 -16 l244 0 0 -135 0 -135 -427 2 -428 3 -3
460 c-1 253 0 466 3 473 3 9 49 12 180 12 l175 0 0 -324z m1373 304 c167 -33
240 -103 241 -230 1 -85 -29 -141 -97 -180 l-48 -27 46 -18 c98 -37 145 -104
145 -207 -1 -148 -93 -229 -294 -257 -43 -6 -232 -11 -427 -11 l-349 0 0 468
c0 258 3 472 8 476 11 12 708 0 775 -14z m-4223 -383 c41 -24 134 -78 207
-120 73 -43 137 -77 144 -77 6 0 105 54 219 120 115 66 215 120 223 120 7 0
40 -16 73 -36 32 -20 87 -51 122 -71 34 -19 62 -38 62 -42 0 -4 -51 -36 -112
-71 -62 -36 -220 -126 -351 -202 l-237 -138 -108 63 c-98 58 -166 98 -475 277
-59 34 -107 66 -105 71 4 11 238 149 253 149 6 0 44 -20 85 -43z m-64 -336
c21 -20 397 -231 411 -231 9 0 110 54 225 120 116 66 214 120 220 120 12 0
258 -144 258 -151 0 -4 -42 -30 -92 -59 -51 -29 -209 -120 -350 -202 -142 -82
-261 -148 -265 -145 -126 68 -692 401 -689 405 8 7 261 152 267 152 3 0 9 -4
15 -9z"/>
<path d="M4490 5029 l0 -222 121 6 c100 4 129 9 166 29 57 29 84 76 90 161 7
84 -11 143 -56 188 -47 47 -91 59 -218 59 l-103 0 0 -221z"/>
<path d="M6640 5200 l0 -80 143 0 c154 0 181 7 206 52 12 21 13 31 3 53 -20
43 -65 55 -217 55 l-135 0 0 -80z"/>
<path d="M6640 4870 l0 -92 154 4 c139 3 158 5 183 24 23 17 28 29 28 64 0 35
-5 47 -28 64 -26 19 -45 21 -183 25 l-154 3 0 -92z"/>
</g>
</svg>
